<svg xmlns="http://www.w3.org/2000/svg" viewBox="0 0 512 512">
  <path fill="#e94e38" d="M496 96h-48V64c0-17.67-14.33-32-32-32H96c-17.67 0-32 14.33-32 32v32H16c-8.84 0-16 7.16-16 16v32c0 8.84 7.16 16 16 16h48v256H16c-8.84 0-16 7.16-16 16v32c0 8.84 7.16 16 16 16h48c0 17.67 14.33 32 32 32h32c17.67 0 32-14.33 32-32h192c0 17.67 14.33 32 32 32h32c17.67 0 32-14.33 32-32h48c8.84 0 16-7.16 16-16v-32c0-8.84-7.16-16-16-16h-48V160h48c8.84 0 16-7.16 16-16v-32c0-8.84-7.16-16-16-16zM96 64h320v32H96V64zm320 384H96V160h320v288z"/>
  <path fill="#e94e38" d="M208 192h96v192h-96z"/>
</svg>

